<svg width="32" height="32" viewBox="0 0 32 32" xmlns="http://www.w3.org/2000/svg">
  <defs>
    <linearGradient id="grad32" x1="0%" y1="0%" x2="100%" y2="100%">
      <stop offset="0%" style="stop-color:#667eea;stop-opacity:1" />
      <stop offset="100%" style="stop-color:#764ba2;stop-opacity:1" />
    </linearGradient>
  </defs>
  
  <!-- Background rounded square -->
  <rect x="2" y="2" width="28" height="28" rx="6" ry="6" fill="url(#grad32)" stroke="#fff" stroke-width="1"/>
  
  <!-- Code brackets and tools symbol -->
  <g fill="#fff" fill-opacity="0.95">
    <!-- Left bracket -->
    <path d="M10 8 L7 11 L7 13 L10 16 L10 14 L9 13 L9 11 L10 10 Z" stroke="#fff" stroke-width="0.5"/>
    <!-- Right bracket -->
    <path d="M22 8 L22 10 L23 11 L23 13 L22 14 L22 16 L25 13 L25 11 Z" stroke="#fff" stroke-width="0.5"/>
    <!-- Gear/cog symbol in center -->
    <circle cx="16" cy="12" r="3" fill="none" stroke="#fff" stroke-width="1.5"/>
    <circle cx="16" cy="12" r="1.5" fill="#fff"/>
    <!-- Gear teeth -->
    <g transform="translate(16,12)">
      <rect x="-0.5" y="-4.5" width="1" height="1.5" fill="#fff"/>
      <rect x="-0.5" y="3" width="1" height="1.5" fill="#fff"/>
      <rect x="3" y="-0.5" width="1.5" height="1" fill="#fff"/>
      <rect x="-4.5" y="-0.5" width="1.5" height="1" fill="#fff"/>
    </g>
    <!-- Tool indicator -->
    <rect x="13" y="20" width="6" height="2" rx="1" fill="#fff" fill-opacity="0.8"/>
  </g>
</svg>